<svg xmlns="http://www.w3.org/2000/svg" width="27" height="27" viewBox="0 0 27 27" fill="none">
<path d="M26.8283 12.9747C26.5871 12.6448 20.84 4.89551 13.4998 4.89551C6.15969 4.89551 0.412272 12.6448 0.171329 12.9744C0.0599954 13.1269 0 13.3109 0 13.4997C0 13.6886 0.0599954 13.8725 0.171329 14.025C0.412272 14.355 6.15969 22.1043 13.4998 22.1043C20.84 22.1043 26.5871 14.3549 26.8283 14.0253C26.9398 13.8729 26.9999 13.6889 26.9999 13.5C26.9999 13.3112 26.9398 13.1272 26.8283 12.9747ZM13.4998 20.3241C8.09303 20.3241 3.41017 15.1807 2.02394 13.4993C3.40838 11.8164 8.08143 6.67571 13.4998 6.67571C18.9064 6.67571 23.5889 11.8182 24.9757 13.5005C23.5913 15.1834 18.9182 20.3241 13.4998 20.3241Z" fill="#7d7f7d"/>
<path d="M13.4999 8.15918C10.5551 8.15918 8.15918 10.5551 8.15918 13.4999C8.15918 16.4446 10.5551 18.8405 13.4999 18.8405C16.4446 18.8405 18.8405 16.4446 18.8405 13.4999C18.8405 10.5551 16.4446 8.15918 13.4999 8.15918ZM13.4999 17.0603C11.5366 17.0603 9.93944 15.4631 9.93944 13.4999C9.93944 11.5366 11.5366 9.93944 13.4999 9.93944C15.4631 9.93944 17.0603 11.5366 17.0603 13.4999C17.0603 15.4631 15.4632 17.0603 13.4999 17.0603Z" fill="#7d7f7d"/>
</svg>