<svg xmlns="http://www.w3.org/2000/svg" width="26" height="26" viewBox="0 0 26 26" fill="none">
<g clip-path="url(#clip0_224_527)">
<path d="M16.2278 13.219L17.7046 11.7423C17.812 12.1443 17.875 12.5646 17.875 13.0001C17.875 15.6882 15.6881 17.8751 13 17.8751C12.5645 17.8751 12.1442 17.8121 11.7422 17.7046L13.2189 16.2279C13.9995 16.1749 14.7344 15.8409 15.2876 15.2877C15.8408 14.7345 16.1748 13.9996 16.2278 13.219ZM25.8976 12.6054C25.7977 12.4256 24.3803 9.94201 21.6096 7.83722L20.4272 9.01961C22.4475 10.5051 23.7276 12.2375 24.2316 13.0013C23.2686 14.4676 19.4908 19.5001 13 19.5001C12.0266 19.5001 11.1215 19.3755 10.2698 19.1769L8.93463 20.512C10.1621 20.8884 11.5113 21.1251 13 21.1251C21.5054 21.1251 25.7223 13.7102 25.8976 13.3947C25.9647 13.274 26 13.1382 26 13.0001C26 12.8619 25.9647 12.7261 25.8976 12.6054ZM22.5119 4.63699L4.63691 22.512C4.47827 22.6706 4.27027 22.7501 4.06248 22.7501C3.85468 22.7501 3.64668 22.6706 3.48804 22.512C3.41255 22.4366 3.35265 22.347 3.31179 22.2485C3.27093 22.1499 3.2499 22.0443 3.2499 21.9376C3.2499 21.8309 3.27093 21.7252 3.31179 21.6266C3.35265 21.5281 3.41255 21.4385 3.48804 21.3631L5.76223 19.0889C2.08566 16.8694 0.217524 13.6021 0.102352 13.3947C0.035227 13.274 0 13.1381 0 13C0 12.8618 0.035227 12.7259 0.102352 12.6052C0.277649 12.2899 4.49452 4.87505 13 4.87505C15.1992 4.87505 17.1041 5.37677 18.7326 6.11858L21.363 3.48811C21.6805 3.17063 22.1946 3.17063 22.5119 3.48811C22.8292 3.8056 22.8294 4.31971 22.5119 4.63699ZM6.97387 17.8773L9.03091 15.8202C8.46277 15.0232 8.12498 14.0512 8.12498 13.0001C8.12498 10.3119 10.3118 8.12505 13 8.12505C14.0511 8.12505 15.0231 8.46285 15.8202 9.03079L17.4836 7.3674C16.1693 6.8411 14.676 6.50005 13 6.50005C6.50912 6.50005 2.7314 11.5325 1.76859 12.9988C2.37999 13.9255 4.13743 16.2712 6.97387 17.8773ZM10.2105 14.6405L14.6404 10.2105C14.1572 9.92514 13.6008 9.75005 13 9.75005C11.208 9.75005 9.74998 11.2081 9.74998 13.0001C9.74998 13.6009 9.92507 14.1573 10.2105 14.6405Z" fill="#00A410"/>
</g>
<defs>
<clipPath id="clip0_224_527">
<rect width="26" height="26" fill="white"/>
</clipPath>
</defs>
</svg>