<svg xmlns="http://www.w3.org/2000/svg" width="35" height="35" viewBox="0 0 35 35" fill="none">
<path d="M13.6639 5.68419C10.6189 6.72719 8.02188 9.00919 6.57988 11.8862C6.07588 12.8802 5.71188 13.9372 5.49488 15.0292C4.94188 17.7452 5.32688 20.6362 6.57988 23.1142C7.39188 24.7312 8.56088 26.1662 9.97488 27.2862C11.3119 28.3502 12.8659 29.1342 14.5179 29.5752C16.5969 30.1352 18.8159 30.1212 20.9159 29.6452C22.8129 29.2112 24.6049 28.3012 26.0329 26.9852C27.5449 25.5922 28.6229 23.7652 29.1969 21.7982C29.8199 19.6492 29.9039 17.3602 29.5119 15.1622C25.5919 15.1622 21.6719 15.1622 17.7449 15.1622C17.7449 16.7862 17.7449 18.4172 17.7449 20.0412C20.0129 20.0412 22.2879 20.0412 24.5559 20.0412C24.2899 21.6022 23.3659 23.0232 22.0499 23.9052C21.2239 24.4582 20.2789 24.8222 19.2989 24.9902C18.3119 25.1582 17.2969 25.1792 16.3169 24.9832C15.3159 24.7872 14.3639 24.3672 13.5309 23.7792C12.2009 22.8482 11.1859 21.4762 10.6679 19.9432C10.1359 18.3822 10.1289 16.6392 10.6679 15.0782C11.0389 13.9792 11.6619 12.9572 12.4809 12.1312C13.4889 11.0952 14.7979 10.3602 16.2119 10.0592C17.4229 9.80019 18.6969 9.84919 19.8799 10.2062C20.8879 10.5142 21.8119 11.0602 22.5749 11.7882C23.3449 11.0252 24.1079 10.2552 24.8779 9.49219C25.2769 9.07919 25.7039 8.68719 26.0959 8.26019C24.9339 7.18219 23.5619 6.31419 22.0709 5.76819C19.3969 4.76719 16.3659 4.74619 13.6639 5.68419Z" fill="#0D0D0D"/>
<path d="M13.6639 5.68402C16.3659 4.74602 19.3969 4.76702 22.0849 5.76102C23.5759 6.30702 24.9409 7.17502 26.1099 8.25302C25.7179 8.67302 25.2979 9.07202 24.8919 9.48502C24.1219 10.248 23.3589 11.018 22.5889 11.781C21.8259 11.053 20.9019 10.5 19.8939 10.199C18.7109 9.84202 17.4369 9.79303 16.2259 10.052C14.8119 10.353 13.5029 11.095 12.4949 12.124C11.6759 12.95 11.0529 13.972 10.6819 15.071C9.31691 14.014 7.95191 12.95 6.58691 11.893C8.02191 9.00902 10.6189 6.72702 13.6639 5.68402Z" fill="#EC594C"/>
<path d="M5.49488 15.0292C5.71188 13.9372 6.08288 12.8802 6.57988 11.8862C7.94488 12.9432 9.30988 14.0072 10.6749 15.0642C10.1359 16.6252 10.1429 18.3682 10.6749 19.9292C9.30988 20.9862 7.94488 22.0502 6.57988 23.1072C5.32688 20.6432 4.94188 17.7452 5.49488 15.0292Z" fill="#F9C32E"/>
<path d="M17.7521 15.1548C21.6721 15.1548 25.5921 15.1548 29.5191 15.1548C29.9111 17.3528 29.8271 19.6418 29.2041 21.7908C28.6301 23.7578 27.5521 25.5918 26.0401 26.9778C24.7171 25.9488 23.3871 24.9198 22.0711 23.8908C23.3871 23.0158 24.3111 21.5878 24.5771 20.0268C22.3091 20.0268 20.0341 20.0268 17.7661 20.0268C17.7451 18.4098 17.7521 16.7858 17.7521 15.1548Z" fill="#668BC5"/>
<path d="M6.58008 23.114C7.94508 22.057 9.31008 20.993 10.6751 19.936C11.1931 21.476 12.2081 22.841 13.5381 23.772C14.3711 24.36 15.3231 24.773 16.3241 24.976C17.3041 25.172 18.3261 25.151 19.3061 24.983C20.2861 24.815 21.2311 24.451 22.0571 23.898C23.3801 24.927 24.7101 25.956 26.0261 26.985C24.5981 28.308 22.8061 29.211 20.9091 29.645C18.8161 30.121 16.5971 30.135 14.5111 29.575C12.8591 29.134 11.3051 28.35 9.96808 27.286C8.56108 26.159 7.39208 24.724 6.58008 23.114Z" fill="#3ABA5A"/>
</svg>